<svg width="35" height="36" viewBox="0 0 35 36" fill="none" xmlns="http://www.w3.org/2000/svg">
<path d="M34.9923 36V31C34.9923 27.686 32.3063 25 28.9923 25H12.9923C9.67929 25 6.99229 27.686 6.99229 31V36H34.9923Z" fill="#77B255"/>
<path d="M16.6323 25.106C16.6323 26 18.9923 27.099 20.9923 27.099C22.9923 27.099 25.3513 26 25.3513 25.107V21.29H16.6313V25.106H16.6323Z" fill="#F7DECE"/>
<path d="M16.6243 22.973C17.8403 24.347 19.3483 24.719 20.9883 24.719C22.6273 24.719 24.1343 24.346 25.3513 22.973V19.482H16.6233V22.973H16.6243Z" fill="#EEC2AD"/>
<path d="M14.4363 12.936C14.4363 14.384 13.7023 15.558 12.7973 15.558C11.8923 15.558 11.1583 14.384 11.1583 12.936C11.1583 11.488 11.8923 10.313 12.7973 10.313C13.7023 10.312 14.4363 11.487 14.4363 12.936ZM30.8253 12.936C30.8253 14.384 30.0923 15.558 29.1863 15.558C28.2813 15.558 27.5473 14.384 27.5473 12.936C27.5473 11.488 28.2803 10.313 29.1863 10.313C30.0923 10.312 30.8253 11.487 30.8253 12.936Z" fill="#F7DECE"/>
<path d="M12.4693 13.96C12.4693 8.37099 16.2853 3.83899 20.9923 3.83899C25.6993 3.83899 29.5143 8.37099 29.5143 13.96C29.5143 19.549 25.6993 24.081 20.9923 24.081C16.2863 24.08 12.4693 19.549 12.4693 13.96Z" fill="#F7DECE"/>
<path d="M20.9923 20.802C18.2383 20.802 17.3923 20.097 17.2513 19.954C16.9953 19.698 16.9953 19.283 17.2513 19.027C17.4993 18.779 17.8973 18.772 18.1533 19.004C18.2053 19.041 18.8743 19.491 20.9923 19.491C23.1923 19.491 23.8283 19.006 23.8343 19.001C24.0903 18.746 24.4913 18.758 24.7473 19.016C25.0033 19.272 24.9893 19.699 24.7333 19.954C24.5923 20.097 23.7463 20.802 20.9923 20.802Z" fill="#C1694F"/>
<path d="M20.9923 0C26.6403 0 30.1703 4.648 30.1703 8.121C30.1703 11.594 29.4643 12.984 28.7583 11.594L27.3463 8.816C27.3463 8.816 23.1113 8.816 21.6993 7.426C21.6993 7.426 23.8173 11.594 19.5813 7.426C19.5813 7.426 20.2873 10.205 16.0513 6.732C16.0513 6.732 13.9333 8.121 13.2273 11.594C13.0313 12.558 11.8153 11.594 11.8153 8.121C11.8143 4.648 14.6383 0 20.9923 0Z" fill="#292F33"/>
<path d="M16.9923 14C16.4423 14 15.9923 13.55 15.9923 13V12C15.9923 11.45 16.4423 11 16.9923 11C17.5423 11 17.9923 11.45 17.9923 12V13C17.9923 13.55 17.5423 14 16.9923 14ZM24.9923 14C24.4423 14 23.9923 13.55 23.9923 13V12C23.9923 11.45 24.4423 11 24.9923 11C25.5423 11 25.9923 11.45 25.9923 12V13C25.9923 13.55 25.5423 14 24.9923 14Z" fill="#662113"/>
<path d="M21.7423 16.75H20.2423C19.8293 16.75 19.4923 16.413 19.4923 16C19.4923 15.587 19.8293 15.25 20.2423 15.25H21.7423C22.1553 15.25 22.4923 15.587 22.4923 16C22.4923 16.413 22.1553 16.75 21.7423 16.75Z" fill="#C1694F"/>
<path d="M32.9923 35C32.9923 35.553 32.5453 36 31.9923 36H21.9923C21.4393 36 20.9923 35.553 20.9923 35C20.9923 34.447 21.4393 34 21.9923 34H31.9923C32.5453 34 32.9923 34.447 32.9923 35Z" fill="#E1E8ED"/>
<path d="M20.2323 22H3.75129C2.22729 22 0.273293 22.771 1.27329 25.531L4.34529 34.006C4.34629 34.006 4.74229 36 6.99229 36H26.9923L22.9923 24.76C22.5543 23.438 21.7573 22 20.2323 22Z" fill="#E1E8ED"/>
<path d="M19.2323 22H2.75129C1.22729 22 -0.726707 22.771 0.273293 25.531L3.34529 34.006C3.34629 34.006 3.74229 36 5.99229 36H25.9923L21.9923 24.76C21.5543 23.438 20.7573 22 19.2323 22Z" fill="#99AAB5"/>
<path d="M14.0113 29.283C14.5353 30.855 14.1103 32.413 13.0623 32.762C12.0143 33.112 10.7403 32.121 10.2163 30.549C9.69229 28.977 10.1173 27.419 11.1653 27.07C12.2133 26.721 13.4883 27.711 14.0113 29.283ZM18.9923 24.75H2.99229C2.57829 24.75 2.24229 24.414 2.24229 24C2.24229 23.586 2.57829 23.25 2.99229 23.25H18.9923C19.4063 23.25 19.7423 23.586 19.7423 24C19.7423 24.414 19.4063 24.75 18.9923 24.75Z" fill="#E1E8ED"/>
</svg>
