<svg width="36" height="31" viewBox="0 0 36 31" fill="none" xmlns="http://www.w3.org/2000/svg">
<path d="M18 0C8.059 0 0 6.908 0 15.428C0 16.494 0.126 17.535 0.367 18.54C2.146 21.601 3.377 19.669 9 16.857C14.727 13.993 9 20.857 7 24.857C6.385 26.087 6.718 27.128 7.56 27.981C10.506 29.785 14.104 30.857 18 30.857C27.941 30.857 36 23.95 36 15.428C36 6.908 27.941 0 18 0ZM20.849 24.447C20.454 25.793 18.389 26.371 16.236 25.738C14.083 25.106 12.658 23.504 13.053 22.157C13.448 20.811 15.513 20.233 17.666 20.867C19.819 21.498 21.244 23.1 20.849 24.447Z" fill="#D99E82"/>
<path d="M10 10.857C11.6569 10.857 13 9.51385 13 7.85699C13 6.20014 11.6569 4.85699 10 4.85699C8.34315 4.85699 7 6.20014 7 7.85699C7 9.51385 8.34315 10.857 10 10.857Z" fill="#5C913B"/>
<path d="M20 8.85699C21.6569 8.85699 23 7.51385 23 5.85699C23 4.20014 21.6569 2.85699 20 2.85699C18.3431 2.85699 17 4.20014 17 5.85699C17 7.51385 18.3431 8.85699 20 8.85699Z" fill="#226699"/>
<path d="M29 14.857C30.6569 14.857 32 13.5138 32 11.857C32 10.2001 30.6569 8.85699 29 8.85699C27.3431 8.85699 26 10.2001 26 11.857C26 13.5138 27.3431 14.857 29 14.857Z" fill="#DD2E44"/>
<path d="M28 23.857C29.6569 23.857 31 22.5138 31 20.857C31 19.2001 29.6569 17.857 28 17.857C26.3431 17.857 25 19.2001 25 20.857C25 22.5138 26.3431 23.857 28 23.857Z" fill="#FFCC4D"/>
</svg>
